<?xml version="1.0" standalone="no"?>
<!DOCTYPE svg PUBLIC "-//W3C//DTD SVG 20010904//EN"
 "http://www.w3.org/TR/2001/REC-SVG-20010904/DTD/svg10.dtd">
<svg version="1.0" xmlns="http://www.w3.org/2000/svg"
 width="820.000000pt" height="820.000000pt" viewBox="0 0 820.000000 820.000000"
 preserveAspectRatio="xMidYMid meet">
<metadata>
Created by potrace 1.14, written by Peter Selinger 2001-2017
</metadata>
<g transform="translate(0.000000,820.000000) scale(0.100000,-0.100000)"
fill="#000000" stroke="none">
<path d="M5580 7700 c-1144 -72 -2025 -592 -2507 -1479 -35 -65 -64 -109 -67
-100 -3 8 -10 41 -16 74 -16 86 -29 114 -61 130 -62 32 -102 13 -180 -85 -181
-229 -312 -512 -368 -790 -82 -414 -34 -876 135 -1303 l35 -87 -64 -173 c-36
-94 -68 -182 -72 -194 l-6 -23 -415 0 -416 0 -29 -29 -29 -29 0 -226 0 -225
-54 -15 c-30 -9 -95 -37 -145 -62 -316 -158 -551 -469 -611 -810 -18 -101 -8
-350 19 -482 73 -349 270 -862 396 -1029 54 -73 138 -143 213 -179 114 -54
105 -54 1198 -54 979 0 1013 1 1089 20 168 43 299 158 393 346 52 103 148 334
195 470 84 242 136 472 152 674 32 409 -230 846 -625 1044 -50 25 -115 53
-145 62 l-55 18 0 224 0 224 -29 29 -29 29 -426 0 c-373 0 -426 2 -426 15 0
17 75 226 96 267 l14 26 137 -5 c777 -31 1747 408 2679 1210 254 219 641 596
650 634 9 33 -3 71 -29 97 -17 17 -51 28 -141 45 -194 36 -335 100 -222 101
49 0 256 50 356 86 215 77 483 233 669 389 152 128 260 260 509 622 148 215
157 240 104 292 -24 24 -56 35 -217 74 -595 143 -1185 206 -1655 177z m-3243
-4244 c-16 -42 -90 -354 -116 -491 -31 -161 -68 -405 -73 -480 l-3 -40 -416
-3 -416 -2 -25 -48 c-35 -63 -66 -168 -74 -245 -16 -163 63 -494 201 -832 81
-200 124 -281 166 -320 l39 -35 910 0 910 0 39 36 c91 82 276 553 341 870 45
216 35 359 -35 502 l-36 72 -696 0 -696 0 7 68 c24 239 102 628 178 890 l21
72 388 0 389 0 0 -211 c0 -197 1 -213 21 -240 13 -18 35 -33 62 -40 23 -6 71
-20 107 -31 357 -112 630 -478 630 -844 0 -238 -103 -614 -272 -998 -74 -168
-124 -245 -192 -296 -99 -75 -23 -70 -1162 -70 -1135 0 -1073 -4 -1163 66 -86
66 -139 156 -248 419 -141 338 -216 645 -217 875 -1 162 12 216 90 375 122
252 327 420 604 494 121 32 120 29 120 287 l0 214 311 0 c258 0 310 -2 306
-14z"/>
</g>
</svg>
